<?xml version="1.0" encoding="UTF-8" standalone="no"?>
<svg width="1366px" height="256px" viewBox="0 0 1366 256" version="1.1" xmlns="http://www.w3.org/2000/svg" xmlns:xlink="http://www.w3.org/1999/xlink">
    <!-- Generator: Sketch 47 (45396) - http://www.bohemiancoding.com/sketch -->
    <title>WelcomeScreen_Line</title>
    <desc>Created with Sketch.</desc>
    <defs></defs>
    <g id="Web" stroke="none" stroke-width="1" fill="none" fill-rule="evenodd">
        <g id="Home" transform="translate(0.000000, -250.000000)" stroke="#000000" stroke-width="11">
            <g id="WelcomeScreen" transform="translate(-4.000000, 35.000000)">
                <path d="M0,455.230807 C12.4895697,461.658678 27.3770234,459.677485 44.6623609,449.287227 C70.5903671,433.701841 80.1730643,362.746518 90.3080168,320.888685 C100.442969,279.030852 122.056198,230.965488 145.995951,230.965488 C169.935703,230.965488 199.319085,283.518469 210.136338,304.918546 C220.953592,326.318623 233.770267,357.698288 241.533627,373.731868 C249.296987,389.765447 264.777473,433.317088 286.273296,433.317088 C307.769119,433.317088 368.030783,344.06706 373.537758,338.186649 C379.044732,332.306238 396.901091,315.461939 406.435872,318.402144 C415.970653,321.34235 407.573923,349.687768 402.439401,355.757684 C397.304879,361.827601 363.495212,373.551922 356.397334,349.687768 C349.299456,325.823613 380.787644,300.267049 398.68132,292.698317 C416.574997,285.129585 501.404667,299.295265 506.853113,310.269352 C512.301559,321.243439 514.892763,373.328719 533.190817,373.328719 C551.48887,373.328719 584.647773,350.702919 610.990798,335.973179 C637.333822,321.243439 624.202216,423.84053 629.288851,444.611473 C634.375486,465.382417 640.882761,478.515717 667.03956,444.611473 C693.196358,410.707229 724.131189,345.138351 748.276744,345.138351 C772.4223,345.138351 774.316486,419.631212 849.035754,422.697755 C923.755022,425.764297 960.1493,366.377017 980.989133,355.757684 C1001.82897,345.138351 1169.66246,311.084563 1181.09142,305.204152 C1192.52039,299.323742 1219.54145,283.559457 1215.09433,254.581851 C1210.64721,225.604244 1175.25617,209.295585 1143.59374,230.965488 C1111.93132,252.635391 1092.64758,298.837144 1110.04111,338.35764 C1127.43463,377.878136 1171.76178,397.489077 1218.25448,394.876199 C1249.24962,393.13428 1301.19322,380.094775 1374.08529,355.757684" id="WelcomeScreen_Line"></path>
            </g>
        </g>
    </g>
</svg>